<svg xmlns="http://www.w3.org/2000/svg" xmlns:xlink="http://www.w3.org/1999/xlink" width="700" zoomAndPan="magnify" viewBox="0 0 525 525.000007" height="700" preserveAspectRatio="xMidYMid meet" version="1.0"><defs><clipPath id="a4c8349257"><path d="M 0.5 0 L 524.5 0 L 524.5 524 L 0.5 524 Z M 0.5 0 " clip-rule="nonzero"/></clipPath><clipPath id="efe9aad017"><path d="M 1.246094 0.75 L 523.753906 0.75 L 523.753906 523.253906 L 1.246094 523.253906 Z M 1.246094 0.75 " clip-rule="nonzero"/></clipPath><clipPath id="f607d0f024"><path d="M 0.5 41.921875 L 0.5 482.082031 C 0.5 505.234375 19.265625 524 42.417969 524 L 482.582031 524 C 505.734375 524 524.5 505.234375 524.5 482.082031 L 524.5 41.921875 C 524.5 18.769531 505.734375 0 482.582031 0 L 42.417969 0 C 19.265625 0 0.5 18.769531 0.5 41.921875 Z M 0.5 41.921875 " clip-rule="nonzero"/></clipPath><clipPath id="be248ad592"><path d="M 43.316406 0.898438 L 481.683594 0.898438 C 504.835938 0.898438 523.601562 19.667969 523.601562 42.820312 L 523.601562 481.183594 C 523.601562 504.335938 504.835938 523.105469 481.683594 523.105469 L 43.316406 523.105469 C 20.164062 523.105469 1.398438 504.335938 1.398438 481.183594 L 1.398438 42.820312 C 1.398438 19.667969 20.164062 0.898438 43.316406 0.898438 Z M 43.316406 0.898438 " clip-rule="nonzero"/></clipPath><clipPath id="fe41e152df"><path d="M 0.5 0 L 524.5 0 L 524.5 524 L 0.5 524 Z M 0.5 0 " clip-rule="nonzero"/></clipPath><clipPath id="51b14993a1"><path d="M 0.5 41.921875 L 0.5 482.082031 C 0.5 505.234375 19.265625 524 42.417969 524 L 482.582031 524 C 505.734375 524 524.5 505.234375 524.5 482.082031 L 524.5 41.921875 C 524.5 18.769531 505.734375 0 482.582031 0 L 42.417969 0 C 19.265625 0 0.5 18.769531 0.5 41.921875 Z M 0.5 41.921875 " clip-rule="nonzero"/></clipPath><clipPath id="83982847a2"><path d="M 0.5 41.921875 L 0.5 482.082031 C 0.5 505.234375 19.265625 524 42.417969 524 L 482.582031 524 C 505.734375 524 524.5 505.234375 524.5 482.082031 L 524.5 41.921875 C 524.5 18.769531 505.734375 0 482.582031 0 L 42.417969 0 C 19.265625 0 0.5 18.769531 0.5 41.921875 Z M 0.5 41.921875 " clip-rule="nonzero"/></clipPath></defs><g clip-path="url(#a4c8349257)"><path fill="#ffffff" d="M 0.5 0 L 524.5 0 L 524.5 524 L 0.5 524 Z M 0.5 0 " fill-opacity="1" fill-rule="nonzero"/><path fill="#ffffff" d="M 0.5 0 L 524.5 0 L 524.5 524 L 0.5 524 Z M 0.5 0 " fill-opacity="1" fill-rule="nonzero"/></g><g clip-path="url(#efe9aad017)"><g clip-path="url(#f607d0f024)"><g clip-path="url(#be248ad592)"><path fill="#433d8b" d="M 516.929688 0 L 0.523438 0 L 0.523438 524 L 524.476562 524 L 524.476562 0 Z M 509.226562 15.355469 L 509.226562 282.308594 C 366.054688 282.253906 174.09375 280.265625 110.367188 168.378906 L 110.367188 123.835938 L 95.011719 123.835938 L 95.011719 168.378906 C 77.300781 199.507812 49.628906 222.09375 15.878906 238.550781 L 15.878906 15.355469 Z M 509.226562 297.664062 L 509.226562 325.125 L 110.367188 325.125 L 110.367188 195.890625 C 188.1875 295.828125 370.980469 297.664062 509.226562 297.664062 Z M 95.011719 325.125 L 15.878906 325.125 L 15.878906 255.527344 C 47.585938 241.117188 74.835938 221.832031 95.011719 195.890625 Z M 71.324219 508.699219 L 15.878906 508.699219 L 15.878906 340.476562 L 95.011719 340.476562 L 95.011719 508.699219 Z M 134.105469 508.699219 L 110.417969 508.699219 L 110.417969 340.476562 L 509.277344 340.476562 L 509.277344 508.699219 Z M 134.105469 508.699219 " fill-opacity="1" fill-rule="evenodd"/></g></g></g><g clip-path="url(#fe41e152df)"><g clip-path="url(#51b14993a1)"><g clip-path="url(#83982847a2)"><path stroke-linecap="butt" transform="matrix(0.748574, 0, 0, 0.748574, 0.499046, 0.000019962)" fill="none" stroke-linejoin="miter" d="M 0.00127451 56.002277 L 0.00127451 644.000369 C 0.00127451 674.928961 25.069767 699.997453 55.998359 699.997453 L 644.00167 699.997453 C 674.930262 699.997453 699.998755 674.928961 699.998755 644.000369 L 699.998755 56.002277 C 699.998755 25.073684 674.930262 -0.0000266667 644.00167 -0.0000266667 L 55.998359 -0.0000266667 C 25.069767 -0.0000266667 0.00127451 25.073684 0.00127451 56.002277 Z M 0.00127451 56.002277 " stroke="#2e236c" stroke-width="74" stroke-opacity="1" stroke-miterlimit="4"/></g></g></g></svg>