<svg xmlns="http://www.w3.org/2000/svg" xmlns:xlink="http://www.w3.org/1999/xlink" width="1920" zoomAndPan="magnify" viewBox="0 0 1440 809.999993" height="1080" preserveAspectRatio="xMidYMid meet" version="1.0"><defs><clipPath id="418c8762ec"><path d="M 534.75 219.75 L 905.25 219.75 L 905.25 590.25 L 534.75 590.25 Z M 534.75 219.75 " clip-rule="nonzero"/></clipPath><clipPath id="409a036663"><path d="M 534 249 L 534 561 C 534 577.570312 547.429688 591 564 591 L 876 591 C 892.570312 591 906 577.570312 906 561 L 906 249 C 906 232.429688 892.570312 219 876 219 L 564 219 C 547.429688 219 534 232.429688 534 249 Z M 534 249 " clip-rule="nonzero"/></clipPath><clipPath id="b2946c589a"><path d="M 564.898438 219.898438 L 875.101562 219.898438 C 891.667969 219.898438 905.101562 233.332031 905.101562 249.898438 L 905.101562 560.101562 C 905.101562 576.667969 891.667969 590.101562 875.101562 590.101562 L 564.898438 590.101562 C 548.332031 590.101562 534.898438 576.667969 534.898438 560.101562 L 534.898438 249.898438 C 534.898438 233.332031 548.332031 219.898438 564.898438 219.898438 Z M 564.898438 219.898438 " clip-rule="nonzero"/></clipPath><clipPath id="98be15e1f6"><path d="M 534 219 L 906 219 L 906 591 L 534 591 Z M 534 219 " clip-rule="nonzero"/></clipPath><clipPath id="a4ea749a63"><path d="M 534 249 L 534 561 C 534 577.570312 547.429688 591 564 591 L 876 591 C 892.570312 591 906 577.570312 906 561 L 906 249 C 906 232.429688 892.570312 219 876 219 L 564 219 C 547.429688 219 534 232.429688 534 249 Z M 534 249 " clip-rule="nonzero"/></clipPath><clipPath id="bdc3cb1a56"><path d="M 534 249 L 534 561 C 534 577.570312 547.429688 591 564 591 L 876 591 C 892.570312 591 906 577.570312 906 561 L 906 249 C 906 232.429688 892.570312 219 876 219 L 564 219 C 547.429688 219 534 232.429688 534 249 Z M 534 249 " clip-rule="nonzero"/></clipPath></defs><g clip-path="url(#418c8762ec)"><g clip-path="url(#409a036663)"><g clip-path="url(#b2946c589a)"><path fill="#433d8b" d="M 900.625 219 L 534.019531 219 L 534.019531 591 L 905.980469 591 L 905.980469 219 Z M 895.15625 229.902344 L 895.15625 419.417969 C 793.515625 419.378906 657.238281 417.964844 611.996094 338.535156 L 611.996094 306.914062 L 601.097656 306.914062 L 601.097656 338.535156 C 588.523438 360.632812 568.878906 376.667969 544.917969 388.351562 L 544.917969 229.902344 Z M 895.15625 430.316406 L 895.15625 449.8125 L 611.996094 449.8125 L 611.996094 358.066406 C 667.246094 429.015625 797.011719 430.316406 895.15625 430.316406 Z M 601.097656 449.8125 L 544.917969 449.8125 L 544.917969 400.40625 C 567.425781 390.175781 586.773438 376.484375 601.097656 358.066406 Z M 584.28125 580.136719 L 544.917969 580.136719 L 544.917969 460.710938 L 601.097656 460.710938 L 601.097656 580.136719 Z M 628.851562 580.136719 L 612.035156 580.136719 L 612.035156 460.710938 L 895.191406 460.710938 L 895.191406 580.136719 Z M 628.851562 580.136719 " fill-opacity="1" fill-rule="evenodd"/></g></g></g><g clip-path="url(#98be15e1f6)"><g clip-path="url(#a4ea749a63)"><g clip-path="url(#bdc3cb1a56)"><path stroke-linecap="butt" transform="matrix(0.75, 0, 0, 0.75, 533.999979, 219.000009)" fill="none" stroke-linejoin="miter" d="M 0.0000275235 39.99999 L 0.0000275235 456.000011 C 0.0000275235 478.093762 17.906278 496.000013 40.00003 496.000013 L 456.00005 496.000013 C 478.093802 496.000013 496.000052 478.093762 496.000052 456.000011 L 496.000052 39.99999 C 496.000052 17.906239 478.093802 -0.0000119765 456.00005 -0.0000119765 L 40.00003 -0.0000119765 C 17.906278 -0.0000119765 0.0000275235 17.906239 0.0000275235 39.99999 Z M 0.0000275235 39.99999 " stroke="#2e236c" stroke-width="30" stroke-opacity="1" stroke-miterlimit="4"/></g></g></g></svg>